<?xml version="1.0" standalone="no"?>
<!DOCTYPE svg PUBLIC "-//W3C//DTD SVG 20010904//EN"
 "http://www.w3.org/TR/2001/REC-SVG-20010904/DTD/svg10.dtd">
<svg version="1.0" xmlns="http://www.w3.org/2000/svg"
 width="1122.000000pt" height="1122.000000pt" viewBox="0 0 1122.000000 1122.000000"
 preserveAspectRatio="xMidYMid meet">
<metadata>
Created by potrace 1.14, written by Peter Selinger 2001-2017
</metadata>
<g transform="translate(0.000000,1122.000000) scale(0.100000,-0.100000)"
fill="#000000" stroke="none">
<path d="M5311 10068 c-34 -5 -70 -15 -77 -23 -8 -8 -28 -22 -45 -32 -16 -10
-35 -32 -41 -50 -6 -17 -15 -30 -18 -28 -4 2 -8 -51 -9 -119 -2 -132 -6 -118
59 -231 13 -22 32 -50 43 -62 11 -13 19 -24 16 -26 -2 -2 -40 -11 -84 -21
-232 -52 -421 -172 -530 -336 -74 -113 -163 -326 -174 -420 l-6 -55 -68 -8
c-119 -13 -306 -65 -407 -114 -77 -37 -108 -59 -165 -117 -108 -111 -195 -261
-195 -335 0 -17 -11 -20 -127 -26 -71 -4 -193 -5 -273 -2 l-144 5 -38 -41 -38
-42 0 -120 c0 -66 -7 -192 -17 -281 l-17 -161 -32 7 c-37 9 -122 -3 -184 -25
-135 -48 -261 -158 -322 -282 -30 -62 -33 -75 -33 -163 0 -89 2 -99 34 -158
19 -35 53 -78 75 -96 69 -55 188 -94 339 -111 l57 -6 0 -217 c0 -263 33 -767
54 -815 17 -42 67 -82 122 -96 50 -13 592 -41 807 -41 l157 0 0 -25 c0 -14 11
-80 24 -148 14 -67 32 -183 40 -259 12 -102 24 -155 46 -211 16 -42 30 -88 30
-102 l0 -28 -387 7 c-214 3 -404 9 -424 12 -43 7 -73 -18 -84 -69 -8 -42 -8
-37 0 -312 3 -132 3 -260 -2 -285 l-8 -44 -61 74 c-33 41 -95 125 -137 185
-42 61 -113 151 -158 200 -45 50 -88 104 -95 122 -8 17 -18 34 -24 38 -6 3 12
27 38 53 71 69 90 127 103 320 22 302 -1 449 -80 533 -33 34 -44 39 -81 39
-50 0 -273 -55 -311 -77 -43 -26 -51 -51 -58 -179 -8 -142 -19 -167 -82 -184
-88 -24 -143 7 -191 108 -76 160 -170 206 -298 146 -30 -15 -91 -37 -136 -49
-155 -44 -184 -74 -184 -190 1 -38 5 -90 11 -115 5 -25 12 -67 16 -93 3 -28
13 -53 22 -60 10 -7 28 -38 40 -70 27 -67 98 -150 150 -177 20 -10 93 -39 161
-64 122 -45 227 -66 333 -66 45 0 47 -1 36 -21 -20 -38 -1 -85 58 -152 30 -34
63 -73 72 -87 9 -14 30 -41 47 -60 17 -19 94 -105 170 -190 175 -196 385 -437
444 -509 77 -94 79 -99 67 -131 -9 -23 -7 -33 7 -55 16 -25 22 -27 67 -23 l49
5 0 -56 c0 -92 47 -570 80 -806 65 -475 62 -446 45 -465 -20 -23 -19 -66 3
-88 20 -20 129 -28 602 -41 l215 -6 0 -110 c0 -60 -4 -218 -9 -351 l-9 -241
-233 5 c-274 5 -306 -1 -378 -78 -63 -68 -86 -137 -86 -263 0 -90 3 -109 25
-154 26 -51 94 -113 160 -145 113 -56 384 -72 506 -30 124 43 329 174 383 245
41 53 65 124 76 220 6 51 15 106 21 123 5 17 9 47 9 66 0 20 9 65 20 100 42
133 86 447 78 558 l-4 61 500 -3 500 -3 7 -40 c8 -47 153 -489 193 -588 19
-45 25 -72 18 -80 -19 -25 -22 -67 -7 -109 9 -24 30 -101 47 -173 21 -91 38
-140 56 -165 39 -52 158 -167 205 -198 40 -26 44 -27 191 -27 263 1 420 54
471 161 13 28 17 61 16 134 -1 166 -51 280 -146 336 -74 43 -185 73 -295 80
l-100 7 -31 80 c-36 94 -60 188 -89 349 -11 65 -27 139 -35 165 -8 27 -15 53
-15 59 0 6 69 15 183 22 100 7 223 21 274 32 51 10 136 26 190 35 56 9 105 23
115 32 20 18 23 54 7 84 -7 14 -7 88 1 252 7 159 8 382 2 707 l-9 475 45 43
c25 24 114 88 196 143 170 112 160 105 316 217 168 123 159 119 211 71 53 -50
241 -144 317 -160 91 -18 304 -7 375 20 58 23 228 141 300 210 44 41 103 124
137 191 12 25 36 57 52 73 45 42 36 73 -34 119 -31 21 -76 63 -100 95 -24 32
-62 77 -84 100 -36 37 -47 43 -84 43 -39 0 -48 -6 -130 -85 -95 -91 -169 -135
-231 -135 -98 0 -72 82 78 244 51 55 63 75 63 101 0 54 -7 62 -102 116 -50 29
-106 65 -123 81 -46 40 -105 59 -147 48 -43 -12 -170 -114 -226 -181 -47 -57
-102 -158 -122 -226 l-13 -42 -25 19 c-13 11 -31 20 -39 20 -14 0 -56 -26 -98
-62 -11 -9 -72 -56 -136 -105 -64 -48 -180 -136 -257 -195 l-140 -107 -4 294
c-3 287 -4 295 -25 316 -22 22 -22 22 -220 11 -208 -13 -761 -16 -825 -6 l-38
7 0 86 c1 60 5 92 15 105 19 25 19 60 1 79 -13 12 -13 39 -5 178 6 90 8 185 5
211 -3 26 -1 50 5 53 5 4 9 19 9 36 l0 29 193 0 c292 1 634 17 707 34 36 9 89
16 118 16 52 0 90 12 104 34 23 34 -6 96 -45 96 -21 0 -22 66 -6 300 6 85 14
292 17 459 l7 304 50 17 c136 46 280 129 358 206 61 60 72 88 71 180 0 68 -5
90 -31 146 -68 145 -146 185 -343 175 -63 -3 -122 -8 -131 -11 -13 -6 -18 12
-32 106 -25 164 -90 420 -122 473 -40 69 -89 112 -147 132 -47 15 -116 17
-649 21 l-597 3 -6 38 c-3 23 -24 60 -53 98 -27 34 -61 80 -78 103 -16 23 -69
79 -116 125 -149 144 -273 189 -508 184 -72 -2 -116 1 -118 8 -6 17 46 152
104 271 46 95 67 126 128 187 60 61 90 82 176 123 95 46 245 92 299 92 12 0
30 -5 41 -11 23 -12 56 -4 56 14 0 12 77 134 93 147 3 3 23 30 45 60 86 121
107 231 61 333 -31 71 -76 121 -125 137 -23 7 -41 17 -41 22 0 9 -11 9 -99 -4z
m-401 -1527 c81 -26 147 -70 223 -150 81 -86 187 -225 187 -245 0 -13 -13 -16
-62 -17 -563 -6 -1192 -20 -1258 -28 -47 -5 -124 -12 -172 -16 -104 -7 -105
-5 -57 85 44 83 131 184 192 225 105 70 289 121 557 154 177 23 299 20 390 -8z
m1716 -542 c93 -16 119 -58 170 -282 62 -270 67 -317 94 -1007 8 -201 8 -325
0 -460 -6 -102 -14 -283 -17 -403 -3 -120 -9 -220 -13 -222 -4 -3 -41 -12 -81
-20 -61 -13 -211 -18 -839 -25 -421 -6 -850 -14 -955 -20 -476 -24 -1812 -4
-1897 29 -34 13 -34 15 -53 306 -11 163 -15 321 -11 495 2 140 4 269 4 285 -2
190 6 306 42 625 23 201 44 426 47 500 l6 135 196 1 c200 1 431 14 716 40 103
9 398 18 829 24 367 5 671 11 674 14 9 10 1025 -5 1088 -15z m-3688 -704 c2
-1 -6 -85 -17 -186 -11 -101 -23 -231 -26 -288 l-7 -104 -62 6 c-74 7 -214 50
-247 76 -38 29 -73 109 -72 162 2 106 95 235 215 295 82 41 131 54 178 47 19
-2 36 -6 38 -8z m4352 -21 c72 -43 113 -184 71 -247 -33 -51 -167 -134 -300
-187 l-49 -19 -7 142 c-3 78 -5 180 -3 227 4 100 -1 97 156 99 80 1 110 -3
132 -15z m-1530 -1843 c-16 -30 -12 -56 11 -77 21 -19 21 -24 15 -199 -4 -99
-9 -181 -11 -183 -8 -8 -620 -1 -717 8 -57 5 -241 9 -409 10 -168 0 -333 3
-367 6 l-60 7 -7 54 c-4 30 -5 57 -2 59 2 2 154 0 338 -6 184 -6 478 -15 654
-20 176 -5 358 -15 404 -20 83 -11 85 -11 110 14 21 21 24 30 16 52 -22 61
-23 61 -460 78 -220 9 -552 19 -737 22 -185 4 -342 10 -349 15 -8 4 -13 35
-15 78 -1 39 -5 74 -8 79 -3 5 182 12 417 17 232 4 492 10 577 14 85 4 258 8
383 9 222 2 227 2 217 -17z m-2975 -78 c40 -79 29 -506 -14 -592 -28 -55 -84
-88 -228 -134 l-128 -42 -165 0 -165 0 -140 52 c-122 46 -145 58 -180 96 -44
48 -85 149 -85 210 0 24 -7 44 -20 57 -15 15 -20 33 -20 79 l0 58 96 27 c53
15 117 38 144 51 l48 24 27 -21 c15 -12 43 -55 61 -95 54 -118 119 -164 239
-171 126 -7 200 31 246 125 18 37 24 70 27 155 4 100 6 109 26 114 221 54 207
54 231 7z m2294 -504 c58 -5 236 -9 398 -9 l293 0 0 -84 0 -84 -527 -6 c-291
-3 -615 -9 -721 -12 -142 -5 -196 -3 -206 6 -8 6 -20 37 -27 68 -6 31 -20 74
-30 94 -11 21 -19 40 -19 43 0 8 721 -5 839 -16z m3074 -81 c24 -18 65 -46 92
-61 l47 -28 -46 -48 c-135 -146 -165 -274 -85 -366 86 -98 265 -62 422 85 41
39 77 70 80 70 2 0 16 -17 29 -38 14 -20 49 -63 78 -95 l52 -57 -41 -69 c-58
-97 -81 -123 -190 -205 -124 -94 -163 -113 -256 -127 -126 -19 -220 -2 -353
65 -114 57 -142 82 -142 126 0 14 -7 36 -16 49 -28 40 -32 236 -6 337 24 94
79 211 123 263 41 47 141 130 156 131 7 0 32 -15 56 -32z m-1272 -740 c1 -288
3 -570 5 -628 8 -216 9 -1258 1 -1341 l-9 -86 -146 -28 c-81 -16 -181 -32
-222 -37 -121 -15 -2341 -22 -2640 -9 -320 15 -329 16 -341 48 -5 14 -16 82
-25 151 -8 70 -28 222 -44 337 -67 477 -72 584 -68 1382 l3 722 45 -7 c25 -4
297 -6 605 -5 583 1 2732 17 2798 21 l37 2 1 -522z m-4191 489 c0 -25 48 -107
87 -148 l24 -26 -48 -28 c-26 -16 -76 -51 -111 -78 -36 -28 -67 -46 -72 -41
-43 47 -172 209 -185 233 l-16 31 33 1 c18 0 87 17 153 39 66 21 123 38 128
39 4 1 7 -9 7 -22z m4981 -494 c-14 -10 -23 3 -67 91 -27 57 -59 116 -71 132
l-21 28 82 61 81 60 6 -180 c4 -155 3 -182 -10 -192z m-4727 145 l16 -26 -102
-61 c-57 -34 -111 -61 -120 -61 -9 0 -30 17 -47 37 l-30 36 52 39 c29 22 73
53 99 69 25 16 49 38 53 47 5 14 11 11 35 -18 16 -19 36 -47 44 -62z m4543
-105 l63 -121 -26 -17 c-14 -9 -30 -13 -34 -8 -4 4 -36 59 -71 122 l-63 113
25 19 c13 10 29 17 34 16 6 -2 38 -58 72 -124z m-164 -112 c37 -66 67 -122 67
-124 0 -3 -16 -15 -36 -26 l-36 -22 -22 23 c-12 13 -34 32 -48 43 -27 21 -100
133 -96 146 3 9 90 78 98 78 3 1 36 -53 73 -118z m-4249 36 l40 -51 -85 -78
c-46 -43 -87 -77 -90 -75 -3 1 -31 32 -62 68 l-56 66 39 18 c22 10 68 37 102
61 35 23 65 43 68 43 3 0 23 -23 44 -52z m4054 -202 c14 -16 38 -40 54 -51
l29 -22 -98 -70 -98 -71 -3 146 c-2 121 0 150 14 171 l16 25 31 -49 c16 -27
41 -62 55 -79z m-3897 -31 l30 -30 -3 -162 -3 -162 -55 72 c-30 40 -83 103
-117 141 l-62 68 67 58 c37 32 74 66 81 75 14 17 15 16 24 -6 4 -12 21 -37 38
-54z m1409 -2068 l0 -84 -37 4 c-21 3 -89 10 -151 17 -62 7 -112 16 -112 20 0
4 0 34 0 67 l0 60 150 0 150 0 0 -84z m1468 71 c13 -17 40 -104 48 -154 6 -41
5 -43 -18 -43 -14 0 -43 -6 -64 -13 -22 -8 -55 -16 -74 -19 l-35 -6 -37 116
c-21 63 -35 118 -33 122 8 13 203 10 213 -3z m-1651 -262 c141 -18 165 -29
161 -69 l-3 -30 -105 3 c-58 1 -121 6 -140 10 -33 6 -35 9 -38 54 -2 26 1 47
6 47 4 0 58 -7 119 -15z m1741 -123 c-3 -24 -9 -28 -53 -35 -69 -12 -113 -2
-127 29 -6 13 -9 27 -5 30 12 12 84 23 118 18 24 -4 39 -2 44 6 11 18 27 -14
23 -48z m-1767 -98 c65 -5 87 -11 97 -25 7 -11 22 -19 33 -19 23 0 24 4 -10
-100 l-27 -85 -99 0 -99 0 -8 35 c-12 52 2 212 17 206 7 -2 50 -8 96 -12z
m1828 -109 c12 -31 21 -59 21 -64 0 -10 -59 -21 -116 -21 -39 0 -40 1 -60 52
-10 29 -20 56 -22 59 -3 8 83 26 130 28 23 1 29 -5 47 -54z m146 -207 c63 29
262 0 343 -50 46 -28 72 -86 85 -188 8 -68 8 -95 -1 -115 -25 -54 -177 -95
-357 -95 l-114 0 -43 38 c-24 20 -66 62 -95 92 -50 53 -53 60 -77 165 -13 61
-27 117 -31 127 -6 14 6 17 92 23 54 3 105 7 113 9 8 1 25 -2 38 -8 15 -6 30
-5 47 2z m-2225 -28 c36 -5 127 -12 203 -16 l139 -7 -7 -46 c-8 -53 -38 -126
-63 -154 -26 -29 -149 -111 -228 -150 -100 -51 -147 -61 -277 -54 -127 6 -193
23 -259 67 -65 43 -82 84 -74 177 10 122 48 180 129 194 50 9 345 2 437 -11z"/>
<path d="M5694 7489 c-66 -19 -110 -89 -224 -356 -87 -201 -93 -230 -49 -253
11 -6 33 -9 48 -5 31 7 35 13 121 216 67 157 100 225 127 257 l18 23 27 -28
c27 -28 71 -112 150 -283 51 -109 68 -130 108 -130 51 0 74 55 46 108 -8 15
-48 97 -89 182 -87 181 -138 251 -195 268 -44 14 -45 14 -88 1z"/>
<path d="M3845 7382 c-61 -29 -134 -116 -192 -233 -85 -169 -100 -230 -65
-262 22 -20 75 -22 89 -4 6 6 18 37 27 67 22 71 110 237 144 273 52 56 53 56
133 -59 185 -264 168 -244 203 -244 19 0 40 8 49 18 35 39 31 48 -155 311 -41
58 -85 113 -99 123 -37 28 -88 32 -134 10z"/>
<path d="M4486 6140 c-34 -11 -46 -25 -46 -61 0 -55 13 -58 275 -56 233 1 322
-5 558 -43 71 -11 104 -1 113 35 10 41 -10 73 -53 84 -112 28 -384 51 -598 50
-121 0 -233 -5 -249 -9z"/>
<path d="M3695 4184 c-5 -2 -41 -7 -80 -11 -62 -7 -70 -10 -76 -33 -4 -14 -7
-143 -8 -286 -1 -284 6 -328 52 -339 12 -3 69 -5 127 -3 l105 3 3 107 3 107
60 12 c47 9 63 17 71 35 14 29 1 129 -18 145 -10 8 -43 10 -112 6 l-98 -5 4
28 c5 36 17 41 120 47 100 7 112 18 112 105 0 83 -8 88 -143 87 -62 0 -116 -2
-122 -5z m166 -64 c35 0 39 -3 39 -25 0 -28 -7 -30 -108 -40 -35 -3 -74 -11
-87 -17 -26 -11 -45 -65 -45 -124 0 -65 5 -67 106 -55 126 15 124 16 124 -19
0 -25 -5 -30 -37 -39 -21 -5 -51 -11 -68 -13 l-30 -3 2 -107 2 -108 -67 0
c-37 0 -74 5 -82 10 -21 13 -29 517 -8 525 24 9 163 23 192 19 16 -2 46 -4 67
-4z"/>
<path d="M6637 4165 c-48 -7 -94 -16 -102 -19 -32 -12 -98 -187 -115 -305 -11
-79 5 -190 40 -266 25 -56 75 -103 118 -111 54 -10 140 11 182 44 38 32 48 64
40 127 l-5 40 -63 3 c-53 3 -63 6 -60 20 2 11 19 20 49 27 71 15 79 26 79 110
0 88 -9 98 -80 93 -49 -3 -50 -2 -50 25 0 33 17 41 110 56 41 7 70 17 78 28
16 21 11 108 -6 125 -17 17 -115 18 -215 3z m161 -72 c-2 -14 -18 -20 -63 -26
-110 -16 -125 -32 -125 -131 0 -68 13 -80 80 -74 l50 5 0 -37 c0 -37 0 -37
-50 -44 -62 -8 -80 -31 -80 -102 0 -66 14 -79 80 -71 48 6 50 5 50 -19 0 -35
-52 -64 -116 -64 -47 0 -55 4 -82 34 -40 46 -67 161 -60 255 6 71 51 221 77
252 18 21 91 36 184 38 51 1 58 -1 55 -16z"/>
<path d="M6076 4139 c-101 -11 -187 -28 -203 -41 -20 -16 -17 -132 4 -149 17
-14 79 -17 125 -6 24 6 26 4 31 -41 4 -26 9 -97 13 -158 l7 -111 -59 -8 c-108
-13 -107 -12 -102 -111 7 -126 1 -123 200 -86 90 17 188 35 218 39 l55 8 3 71
c4 93 -8 107 -82 98 l-52 -6 -2 128 c-2 71 -5 136 -7 144 -4 12 13 19 77 33
50 10 88 24 96 34 15 21 16 114 0 148 -11 25 -12 25 -127 24 -64 -1 -152 -5
-195 -10z m269 -89 l0 -35 -84 -15 c-99 -18 -112 -31 -100 -93 4 -23 8 -103 9
-178 0 -84 4 -139 11 -146 7 -7 33 -9 70 -6 58 6 59 5 59 -20 0 -23 -5 -26
-47 -32 -27 -4 -104 -18 -172 -31 -69 -13 -127 -22 -129 -20 -2 3 -6 22 -9 44
l-5 39 63 8 c35 5 68 7 73 6 4 -1 15 4 23 10 15 13 13 104 -8 299 -14 125 -22
134 -111 125 -68 -6 -68 -6 -68 19 0 22 6 26 58 37 53 11 270 28 337 25 27 -1
30 -4 30 -36z"/>
<path d="M4215 4105 c-86 -27 -112 -44 -143 -92 -39 -63 -63 -133 -69 -209 -5
-55 -2 -67 26 -120 39 -72 124 -160 166 -173 16 -6 64 -13 105 -16 89 -8 127
4 199 62 69 56 90 82 123 153 28 61 30 71 26 162 -4 111 -17 137 -85 176 -86
47 -278 79 -348 57z m54 -109 c9 -11 9 -16 0 -21 -10 -7 -28 10 -29 28 0 12
17 8 29 -7z m205 -36 c-13 -13 -49 24 -39 40 5 9 14 6 28 -9 15 -14 18 -24 11
-31z m-349 -101 c4 -11 4 -24 0 -27 -9 -9 -36 28 -29 39 9 15 22 10 29 -12z
m238 -24 c8 -20 -41 -57 -72 -53 -29 3 -39 31 -21 53 16 20 86 20 93 0z m101
-91 c9 -24 7 -34 -6 -31 -15 2 -28 28 -21 40 7 12 21 8 27 -9z"/>
<path d="M5478 4106 c-76 -21 -78 -24 -78 -144 0 -172 21 -486 33 -501 17 -20
139 -6 204 24 67 31 158 115 191 180 38 71 37 179 -1 257 -73 148 -213 223
-349 184z m189 -89 c24 -15 59 -52 79 -82 46 -68 57 -158 30 -230 -33 -86
-153 -175 -252 -188 l-41 -5 -7 106 c-11 185 -8 420 7 426 6 3 41 4 77 3 51
-2 74 -9 107 -30z"/>
<path d="M5575 3875 c-16 -9 -33 -22 -37 -28 -11 -18 -10 -105 2 -128 23 -42
139 -10 160 45 10 28 -3 88 -24 105 -23 20 -70 22 -101 6z m65 -75 c0 -16 -26
-40 -44 -40 -8 0 -7 45 1 53 14 15 43 7 43 -13z"/>
<path d="M4910 4083 c-96 -34 -127 -56 -157 -108 -34 -58 -63 -160 -63 -218 0
-75 97 -223 171 -262 15 -8 73 -17 130 -21 l104 -6 60 40 c81 55 118 95 155
171 30 60 32 69 28 157 -1 51 -8 98 -14 104 -6 6 -29 10 -50 9 -162 -7 -176
-5 -196 22 -11 14 -20 41 -20 60 0 19 -5 40 -11 47 -9 12 -107 16 -137 5z m54
-118 c6 -17 -9 -29 -24 -20 -5 3 -10 15 -10 25 0 22 25 18 34 -5z m-144 -146
c0 -19 -20 -18 -30 1 -15 28 -1 49 17 25 7 -11 13 -22 13 -26z m230 -18 c0
-25 -57 -53 -82 -40 -19 10 -21 18 -12 43 4 11 19 16 50 16 36 0 44 -3 44 -19z
m100 -86 c6 -8 9 -19 5 -25 -7 -11 -34 15 -35 33 0 12 17 8 30 -8z"/>
<path d="M4309 3237 c-20 -8 -57 -27 -82 -43 -36 -22 -48 -37 -53 -64 -15 -76
9 -590 32 -662 13 -42 133 -88 231 -88 117 0 222 60 298 170 97 140 57 304
-86 350 -24 7 -46 15 -48 16 -1 2 9 18 23 36 59 78 74 173 35 222 -40 50 -93
69 -209 73 -72 2 -116 -1 -141 -10z m229 -62 c53 -16 82 -44 82 -80 0 -32 -38
-95 -91 -152 -47 -50 -63 -92 -36 -94 6 -1 35 -1 63 1 58 2 122 -25 148 -62
23 -33 21 -122 -5 -175 -28 -59 -114 -134 -178 -157 -60 -21 -130 -18 -198 9
-70 28 -75 53 -81 370 l-5 271 24 27 c48 54 173 73 277 42z"/>
<path d="M4336 3104 c-28 -16 -28 -16 -22 -87 9 -88 21 -104 67 -88 19 6 49
20 67 31 28 17 32 25 32 63 0 82 -69 121 -144 81z m74 -59 c10 -12 10 -18 0
-30 -19 -23 -30 -18 -30 15 0 33 11 38 30 15z"/>
<path d="M4410 2773 c-35 -7 -40 -19 -33 -93 10 -119 47 -139 119 -66 55 54
59 93 15 137 -29 28 -46 32 -101 22z m66 -74 c3 -6 -3 -21 -15 -32 l-21 -21 0
32 c0 32 21 45 36 21z"/>
<path d="M5730 3196 c-136 -15 -202 -29 -218 -49 -13 -17 -37 -181 -28 -202 5
-15 18 -17 102 -13 l96 4 -8 -155 c-5 -86 -9 -212 -9 -281 l0 -124 34 -10 c38
-11 142 6 178 30 20 12 21 20 18 81 -3 38 -7 157 -9 266 l-5 197 41 0 c23 0
82 5 131 12 117 15 127 24 127 121 0 83 -7 114 -25 121 -34 13 -310 14 -425 2z
m380 -115 l0 -58 -88 -12 c-49 -6 -109 -11 -134 -11 -29 0 -50 -6 -58 -15 -10
-13 -12 -72 -6 -279 l7 -263 -45 -12 c-25 -6 -50 -11 -57 -11 -13 0 -12 31 11
375 6 88 8 171 5 184 -6 24 -7 24 -101 18 -106 -7 -102 -11 -88 75 6 36 7 37
73 47 96 16 128 17 314 19 l167 2 0 -59z"/>
<path d="M5003 3082 c-74 -65 -122 -133 -143 -201 -50 -159 3 -326 131 -412
44 -30 152 -54 198 -44 76 17 179 131 212 236 27 85 26 248 -1 304 -27 56 -49
80 -99 105 -68 34 -131 50 -196 50 -55 -1 -64 -4 -102 -38z m260 -66 c45 -22
60 -35 77 -72 19 -39 22 -58 18 -142 -5 -119 -33 -188 -107 -262 -48 -48 -53
-50 -103 -50 -187 1 -302 219 -214 406 28 58 104 136 143 146 53 13 129 2 186
-26z"/>
<path d="M5076 2848 c-22 -31 -20 -91 2 -111 26 -24 104 -23 125 1 32 35 20
95 -24 117 -42 22 -85 19 -103 -7z m79 -58 c3 -5 -3 -10 -14 -10 -12 0 -21 5
-21 10 0 6 6 10 14 10 8 0 18 -4 21 -10z"/>
</g>
</svg>
